# Blender v2.76 (sub 0) OBJ File: 'newSummoner.blend'
# www.blender.org
mtllib newSummoner.mtl
o Cone.000
v 0.175000 0.500000 -0.250000
v -0.325000 0.500000 -0.500000
v 0.175000 0.323223 -0.323223
v 0.175000 0.250000 -0.500000
v 0.175000 0.323223 -0.676777
v 0.175000 0.676777 -0.323223
v 0.175000 0.750000 -0.500000
v 0.175000 0.676777 -0.676777
v 0.175000 0.500000 -0.750000
v 0.175000 0.500000 -0.250000
v 0.425000 0.500000 -0.500000
v 0.175000 0.676777 -0.323223
v 0.175000 0.750000 -0.500000
v 0.175000 0.676777 -0.676777
v 0.175000 0.323223 -0.323223
v 0.175000 0.250000 -0.500000
v 0.175000 0.323223 -0.676777
v 0.175000 0.500000 -0.750000
v 0.825000 0.500000 -0.250000
v 1.325000 0.500000 -0.500000
v 0.825000 0.676777 -0.323223
v 0.825000 0.750000 -0.500000
v 0.825000 0.676777 -0.676777
v 0.825000 0.323223 -0.323223
v 0.825000 0.250000 -0.500000
v 0.825000 0.323223 -0.676777
v 0.825000 0.500000 -0.750000
v 0.825000 0.500000 -0.250000
v 0.575000 0.500000 -0.500000
v 0.825000 0.323223 -0.323223
v 0.825000 0.250000 -0.500000
v 0.825000 0.323223 -0.676777
v 0.825000 0.676777 -0.323223
v 0.825000 0.750000 -0.500000
v 0.825000 0.676777 -0.676777
v 0.825000 0.500000 -0.750000
vt 0.097631 0.000000
vt 0.166667 0.166667
vt 0.000000 0.097631
vt 0.569035 0.666667
vt 0.500000 0.833333
vt 0.430964 0.666667
vt 0.333333 0.764298
vt 0.333333 0.902369
vt 0.666667 0.764297
vt 0.097631 0.333333
vt 0.235703 0.333333
vt 0.333333 0.235702
vt 0.333333 0.097631
vt 0.000000 0.235703
vt 0.235702 0.000000
vt 0.666667 0.902368
vt 0.569036 1.000000
vt 0.430965 1.000000
vt 0.666667 0.430965
vt 0.500000 0.500000
vt 0.569036 0.333333
vt 0.666667 0.569036
vt 0.000000 0.764298
vt 0.166667 0.833333
vt 0.000000 0.902369
vt 0.097631 1.000000
vt 0.235703 1.000000
vt 0.097631 0.666667
vt 0.235702 0.666667
vt 0.430965 0.333333
vt 0.333333 0.430964
vt 0.333333 0.569035
vn -0.419400 0.838700 -0.347400
vn 0.678600 0.678600 -0.281100
vn 0.678600 -0.281100 -0.678600
vn 0.678600 0.678600 0.281100
vn 0.678600 0.281100 -0.678600
vn -0.419400 -0.347400 0.838700
vn -0.419400 -0.838700 -0.347400
vn -0.419400 0.347400 0.838700
vn -0.419400 0.838700 0.347400
vn -0.419400 0.347400 -0.838700
vn -0.419400 -0.838700 0.347400
vn -0.419400 -0.347400 -0.838700
vn 0.678600 0.281100 0.678600
vn 0.678600 -0.281100 0.678600
vn 0.678600 -0.678600 0.281100
vn 0.678600 -0.678600 -0.281100
vn -0.678600 0.678600 0.281100
vn -0.678600 0.678600 -0.281100
vn -0.678600 0.281100 -0.678600
vn 0.419400 0.347400 0.838700
vn 0.419400 0.838700 -0.347400
vn 0.419400 -0.347400 0.838700
vn 0.419400 -0.838700 0.347400
vn 0.419400 -0.838700 -0.347400
vn 0.419400 -0.347400 -0.838700
vn 0.419400 0.838700 0.347400
vn 0.419400 0.347400 -0.838700
vn -0.678600 -0.281100 0.678600
vn -0.678600 -0.678600 -0.281100
vn -0.678600 0.281100 0.678600
vn -0.678600 -0.678600 0.281100
vn -0.678600 -0.281100 -0.678600
usemtl Donacdum
#s 1
f 8/1/1 2/2/1 7/3/1
f 13/4/2 11/5/2 14/6/2
f 18/7/3 11/5/3 17/8/3
f 12/9/4 11/5/4 13/4/4
f 14/6/5 11/5/5 18/7/5
#usemtl None_NONE
f 1/10/6 2/2/6 3/11/6
f 4/12/7 2/2/7 5/13/7
f 6/14/8 2/2/8 1/10/8
f 7/3/9 2/2/9 6/14/9
f 9/15/10 2/2/10 8/1/10
f 3/11/11 2/2/11 4/12/11
f 5/13/12 2/2/12 9/15/12
f 10/16/13 11/5/13 12/9/13
f 15/17/14 11/5/14 10/16/14
f 16/18/15 11/5/15 15/17/15
f 17/8/16 11/5/16 16/18/16
#usemtl None_NONE_newSummoner.png
f 34/19/17 29/20/17 33/21/17
f 35/22/18 29/20/18 34/19/18
f 36/4/19 29/20/19 35/22/19
#usemtl None_NONE_NONE
f 19/23/20 20/24/20 21/25/20
f 22/26/21 20/24/21 23/27/21
f 24/28/22 20/24/22 19/23/22
f 25/29/23 20/24/23 24/28/23
f 26/7/24 20/24/24 25/29/24
f 27/8/25 20/24/25 26/7/25
f 21/25/26 20/24/26 22/26/26
f 23/27/27 20/24/27 27/8/27
f 28/30/28 29/20/28 30/31/28
f 31/32/29 29/20/29 32/6/29
f 33/21/30 29/20/30 28/30/30
f 30/31/31 29/20/31 31/32/31
f 32/6/32 29/20/32 36/4/32
